<svg xmlns="http://www.w3.org/2000/svg" width="88" height="87" fill="none"><g clip-path="url(#a)"><path fill="#563D7C" d="M0 75.782C0 81.978 5.08 87 11.347 87h65.306C82.92 87 88 81.977 88 75.782V11.218C88 5.022 82.92 0 76.653 0H11.347C5.08 0 0 5.023 0 11.218v64.564Z"/><path fill="#fff" d="M36.492 38.483v-12.32h10.97c1.044 0 2.051.086 3.021.258.97.172 1.829.48 2.575.922a4.944 4.944 0 0 1 1.791 1.845c.448.787.672 1.795.672 3.024 0 2.213-.672 3.812-2.015 4.796-1.343.983-3.06 1.475-5.15 1.475H36.493Zm-11.716-21.32v52.675h25.82c2.388 0 4.713-.295 6.977-.885 2.264-.59 4.278-1.5 6.044-2.73s3.172-2.816 4.217-4.758c1.045-1.943 1.567-4.243 1.567-6.899 0-3.295-.809-6.11-2.425-8.447-1.617-2.336-4.068-3.972-7.351-4.906 2.388-1.131 4.191-2.582 5.41-4.353 1.219-1.77 1.829-3.983 1.829-6.64 0-2.459-.41-4.524-1.232-6.197-.82-1.672-1.977-3.012-3.47-4.02-1.492-1.009-3.283-1.734-5.373-2.177-2.09-.443-4.403-.664-6.94-.664H24.776Zm11.716 43.674v-14.46h12.76c2.537 0 4.577.578 6.12 1.734 1.542 1.156 2.313 3.086 2.313 5.791 0 1.378-.236 2.509-.71 3.394-.472.885-1.106 1.586-1.902 2.103-.796.516-1.717.885-2.761 1.106a15.84 15.84 0 0 1-3.284.332H36.492Z"/></g><defs><clipPath id="a"><path fill="#fff" d="M0 0h88v87H0z"/></clipPath></defs></svg>