<svg xmlns="http://www.w3.org/2000/svg" width="120" height="120" fill="none"><path fill="#000" d="M67.365 119.745c-1.564-.274-3.184-1.016-4.102-1.837a3.617 3.617 0 0 1-.998-2.423c0-.919.469-2.209 1.211-3.495a9.864 9.864 0 0 0 1.054-2.325c.157-.566.487-1.485.742-2.07l.45-1.072.117-7.167c.06-3.963.176-7.635.273-8.205a25.56 25.56 0 0 1 1.25-4.803l.43-1.035-.626-.372c-.566-.352-1.035-.84-2.891-3.049-2.284-2.696-5.291-4.18-9.551-4.687a74.048 74.048 0 0 0-4.2-.293c-6.252-.292-9.825-1.6-13.047-4.766-2.403-2.362-3.652-5.118-4.158-9.18-.683-5.49-1.444-8.302-2.85-10.586a10.474 10.474 0 0 0-1.193-1.583l-.566-.566-1.249.803a35.371 35.371 0 0 1-2.111 1.271 42.075 42.075 0 0 0-4.474 2.85c-3.495 2.539-7.305 5.722-9.394 7.811-.937.938-1.425 1.346-1.642 1.309-1.425-.214-.334-6.386 1.991-11.036 2.97-5.996 7.969-11.524 13.752-15.255 4.747-3.068 12.423-7.287 15.974-8.772 6.308-2.636 14.472-5.49 20.06-7.012 1.173-.334 1.893-.626 2.38-.956 1.096-.761 2.168-1.133 3.398-1.151 1.035-.02 1.133-.038 2.13-.706 1.174-.76 1.522-.802 2.696-.39l.761.274.938-.645.938-.626 1.346.019c1.035.019 1.504-.019 1.954-.214.566-.255.585-.293.742-1.23.352-2.032.39-3.049.176-4.279-.273-1.62-.311-7.908-.037-9.142.292-1.328.487-1.601 1.485-2.089C82.009.341 83.123.128 85.68.128c3.124 0 4.706.43 5.88 1.563 1.054 1.016 1.23 3.398.683 8.985-.334 3.222-.372 4.121-.274 6.229.037 1.346.135 2.617.176 2.794.079.333.157.352 1.29.371 1.114.019 1.309.079 2.362.626 1.017.529 1.778 1.174 1.936 1.643.018.097.194.097.506 0 .603-.176 1.132.019 1.563.547.256.334.409.39.998.39.803 0 1.095.195 1.759 1.174.31.44.736.784 1.23.998 1.095.547 2.58 2.07 3.146 3.28a8.075 8.075 0 0 1 .506 5.76c-.195.706-.195.724.214 1.407.859 1.466 1.174 3.262.821 4.785l-.195.9.585.585c2.91 2.91 2.479 7.657-1.072 11.895a7.555 7.555 0 0 0-.998 1.582c-.682 1.816-1.466 3.087-2.478 4.14l-1.035 1.054h-1.054c-1.054 0-2.539-.352-3.439-.821-.371-.195-.39-.195-.311.038.236.858.821 4.353 1.016 6.288.311 2.97.214 7.287-.195 9.143a14.266 14.266 0 0 1-1.485 3.926c-.39.626-.409.761-.334 1.523.117 1.072-.135 2.872-.566 4.06-.529 1.388-.724 2.033-.84 2.735-.097.603-.097.603.334.603.566 0 .877.334.877.998 0 .292-.255 1.875-.566 3.495-.859 4.552-.919 5.058-.919 9.472-.019 4.553-.019 4.512 1.016 5.194l2.326 1.504c2 1.327 4.142 2.428 6.386 3.281 3.262 1.29 3.712 1.62 3.712 2.715 0 .488-.097.664-.506 1.054-1.249 1.211-3.712 1.485-8.674.956a85.075 85.075 0 0 0-7.755-.371c-6.836-.098-7.834-.334-8.73-2.033-.506-.975-.408-2.246.293-4.335.311-.918.585-1.856.821-2.812.469-2.265.157-4.961-.938-8.007l-.937-2.598c-.919-2.636-1.425-7.463-.877-8.554.097-.214.273-.255.742-.236l.585.06.487-1.017c.372-.802.78-1.327 1.894-2.44l1.425-1.426-.078-.918c-.06-.878-1.212-5.138-1.37-5.12-.06 0-.37.432-.723.976-.859 1.29-2.753 3.281-3.829 4.005-.468.311-.858.682-.858.802-.02.529-.47 1.564-1.017 2.284-.528.705-.566.821-.487 1.444.135.919-.158 3.866-.507 5.411a17.515 17.515 0 0 1-1.29 3.319c-1.346 2.794-2.362 5.291-2.617 6.446a28.348 28.348 0 0 0-.353 3.36c-.06 1.328-.194 2.618-.292 2.891-.135.372-.135.664-.019 1.23.098.409.158 1.328.135 2.052-.019.997.06 1.642.353 2.812.506 1.991.603 3.244.371 3.986-.157.469-.311.645-.84.9-1.174.604-4.493.938-6.289.627l.004.007Zm4.744-1.601c.682-.195 1.271-.78 1.271-1.309 0-.236-.195-.919-.431-1.522-.469-1.152-1.272-4.2-1.272-4.707 0-.255.02-.273.41-.06l.43.237v-.548a7.797 7.797 0 0 0-.333-1.485c-.371-1.114-.409-1.132-2.775-1.271l-1.602-.079-.585.566a5.94 5.94 0 0 0-.84 1.095c-.255.507-.352 1.272-.195 1.444.038.06.432 0 .86-.097.253-.076.515-.121.78-.135 0 .018-.432.371-.976.742-2.344 1.759-3.165 2.831-3.165 4.2 0 1.425 1.346 2.539 3.458 2.873 1.444.213 4.256.273 4.961.06l.004-.004Zm31.777-2.325c.585-.705.507-1.425-.236-2.246a6.18 6.18 0 0 0-1.466-1.095 25.73 25.73 0 0 1-1.643-.975 41.348 41.348 0 0 0-3.048-1.797c-.9-.487-1.778-.997-2.637-1.541l-.352-.274v-5.37c0-5.291-.019-5.37-.293-5.291-1.368.371-3.633.547-6.502.487l-3.105-.037.45 1.095c.84 2.07 1.271 4.845 1.271 8.029 0 1.192-.079 1.62-.371 2.46-.158.409-.293.821-.431 1.23-.06.176.157.311.956.547.585.177 1.444.353 1.935.409l.9.098-.098.9c-.097 1.016.019 2.088.274 2.422.157.195.743.274 3.458.39 2.05.098 4.278.311 6.033.566 1.523.237 3.165.432 3.653.432.821.018.9-.019 1.249-.432l.003-.007Zm-31.267-9.139c.079-.06.195-1.114.236-2.362.157-3.495.292-4.005 2.051-7.95 1.444-3.222 2.209-6.23 2.149-8.36l-.038-1.27-.547.528c-1.132 1.133-.352-.645.998-2.227 1.016-1.212 1.368-1.875 1.522-2.948.079-.431.236-.645.9-1.151a16.804 16.804 0 0 0 5.528-7.305c.273-.705.974-3.105 1.563-5.333 1.095-4.12 1.68-5.898 2.209-6.66.195-.292.274-.352.236-.157a27.77 27.77 0 0 0-.663 3.184c-.158.956-.45 2.831-.645 4.14-.372 2.677-.762 4.395-1.29 5.722l-.353.9.938 2.423c.975 2.478 1.425 4.278 1.503 6.015l.06.975-.761.157a3.941 3.941 0 0 0-2.501 1.564c-.664.956-1.035 1.74-.859 1.913.079.078 1.035.255 2.13.39 1.699.195 2.344.195 4.59.06a27.445 27.445 0 0 0 2.891-.274c.214-.079.431-.507.78-1.62.803-2.558.957-3.458.859-5.254l-.079-1.582.409-.53c.956-1.21 1.699-3.397 2.01-5.958.371-3.124-.311-9.667-1.582-15.292-.604-2.678-.86-4.28-.86-5.45v-1.034l-.956.097c-3.438.372-7.597.274-10.136-.255-1.387-.274-4.882-1.309-5.644-1.642l-.603-.274-.079.682c-.06.372-.116.743-.195 1.133-.116.409-.079.506.645 1.211.9.919 1.174 1.388 1.174 2.01 0 .39-.214.705-1.309 1.838a16.38 16.38 0 0 1-2.599 2.246l-1.271.859-.547 1.894c-1.954 6.933-2.326 13.24-1.035 17.752l.31 1.133-.626.78c-2.343 2.947-3.73 5.193-3.945 6.446-.124.617-.268 1.23-.43 1.837-.507 1.935-.9 4.767-1.073 7.834-.12 2.568-.29 5.133-.507 7.695l-.097.761.975.293c.547.176 1.369.371 1.837.45.878.135 2.502.097 2.753-.038l-.026.004Zm18.963-10.744c1.523-.097 2.91-.334 3.184-.566.116-.079.255-.488.293-.9l.097-.742-1.211.273c-.956.195-1.912.311-2.872.39a48.343 48.343 0 0 1-6.915-.195c-.762-.116-.762-.116-.53.878.196.742.237.78 2.228.919 1.328.116 3.184.097 5.723-.06l.004.003Zm-1.27-3.397c1.99-.177 4.473-.604 4.96-.859.158-.079.293-.371.353-.705l.176-1.035.098-.487-.488.097c-2.167.45-3.81.585-7.091.585-3.202 0-3.574-.019-4.414-.311a3.075 3.075 0 0 0-1.016-.236c-.135.078-.157 1.192-.037 1.972.078.469.157.547.626.683 1.485.408 3.986.506 6.836.273l-.004.023ZM54.063 74.92c4.998-1.444 11.542-5.685 16.893-10.995 1.74-1.74 1.954-1.972 2.187-2.752l.311-.998c.038-.079-.274-.214-.683-.311-1.072-.255-1.893-.878-1.893-1.444 0-.334-.195-.663-.761-1.271-.92-1.035-1.152-1.485-1.25-2.479l-.078-.802-1.095-.78c-.626-.45-2.813-1.661-5.137-2.831a69.648 69.648 0 0 1-5.194-2.813c-1.954-1.309-3.263-2.873-4.005-4.725-.135-.371-.312-.682-.372-.682-.157 0-4.552 4.237-6.427 6.228-4.628 4.883-7.811 9.12-9.825 13.047-.506.974-1.054 2.13-1.211 2.557l-.293.78.353 1.309c.213.705.663 1.856 1.016 2.538 1.23 2.423 2.696 3.885 5.119 5.078 2.599 1.29 4.901 1.74 8.748 1.68 2.07-.019 2.678-.079 3.593-.352l.004.018ZM14.61 57.791c3.281-2.91 7.811-6.093 13.361-9.393 3.634-2.168 17.678-9.2 24.143-12.072a190.653 190.653 0 0 0 2.344-1.072c.116-.079.45-.919.76-1.856 1.37-4.336 2.052-5.194 4.53-5.76.312-.08.39-.177.39-.488 0-.566.39-1.875.724-2.46.255-.45.255-.469.038-.409-.135.038-.956.274-1.815.529-11.914 3.439-22.324 8.006-31.309 13.71-9.588 6.094-15.116 13.399-16.717 22.147l-.116.645 1.173-1.15a49.247 49.247 0 0 1 2.502-2.344l-.008-.027Zm88.38 1.662c.956-.488 2.441-2.734 2.989-4.512a3.901 3.901 0 0 1 .919-1.699c1.443-1.6 2.636-4.51 2.655-6.502 0-3.105-1.759-4.297-4.317-2.97-.333.157-.603.274-.645.236-.135-.135.585-.84 1.467-1.387 1.151-.761 1.368-1.212 1.368-2.831a6.34 6.34 0 0 0-1.113-3.672c-.353-.529-.488-.877-.432-1.095l.353-1.309c.487-1.74.311-3.73-.45-4.998-1.133-1.913-2.52-2.85-4.455-3.008l-1.133-.078.664.742c1.973 2.13 2.929 4.804 2.539 7.091-.195 1.174-.371 1.407-1.504 1.857l-.664.273.079.9c.135 1.467-.116 2.539-1.054 4.511-.469.998-.821 1.894-.78 1.992.117.334 1.407.956 2.423 1.211l.997.236-.626.214c-.821.255-.997.626-.997 1.972 0 1.23.176 1.74 1.072 3.087.409.585.683 1.192.724 1.541.079.547.06.585-.39.742a7.09 7.09 0 0 1-1.564.255c-1.837.117-1.972.177-2.794.957-.742.705-.761.742-.761 1.522 0 1.073.409 3.244.664 3.536.334.353 2.186 1.272 2.91 1.407.624.157 1.284.08 1.856-.214v-.008ZM75.938 57.99c1.192-.938 2.13-1.875 2.654-2.678.334-.487.353-.584.195-.997-.273-.626-2.07-2.246-3.067-2.734a7.797 7.797 0 0 0-2.089-.604l-1.23-.157-.761-.956c-1.582-1.954-2.46-3.476-3.713-6.428-1.095-2.501-2.05-3.964-3.573-5.411-.627-.585-1.073-1.072-1.035-1.072.078 0 .821.37 1.68.82 1.425.762 1.601.822 2.246.724 2.325-.273 4.376-2.947 5.119-6.697.213-1.054.645-2.13 1.095-2.775.019-.019.918.566 1.972 1.328 2.678 1.893 3.263 2.186 4.785 2.246.998.037 1.564-.038 3.36-.469 3.829-.938 7.969-1.309 10.489-.975 1.425.195 3.476.821 4.999 1.541 1.504.705 1.796.743 2.284.312.408-.353.408-.41.408-1.718-.018-1.935-.723-4.024-1.796-5.273-.547-.645-2.089-1.698-3.615-2.5-.543-.288-1.082-.581-1.62-.878-.724-.431-1.541-.372-3.769.213-2.58.664-3.262.664-6.21-.097-2.501-.626-2.655-.645-5.118-.255-1.31.195-4.59.079-5.686-.214-.547-.157-1.094-.311-1.62-.506-.956-.371-2.617-.431-4.12-.158-2.99.53-5.255 2.15-6.076 4.354-.431 1.114-.371 1.643.195 1.992.9.566 2.089 2.11 2.089 2.715 0 .037-.292-.214-.626-.567-.84-.877-1.602-1.271-2.502-1.271a3.128 3.128 0 0 0-2.752 1.815c-.263.69-.484 1.395-.664 2.111-.547 1.992-1.035 3.049-2.07 4.455-.919 1.272-1.053 1.838-.724 3.263.822 3.592 2.247 5.04 8.202 8.419 3.123 1.777 4.725 2.774 5.898 3.652.9.664.92.705.84 1.211-.176 1.174.567 2.441 2.033 3.477.371.255.604.528.604.723 0 .353.997.84 1.717.84.409 0 .724-.176 1.564-.821h.007Zm24.082-6.585c2.265.079 2.381-.098 1.174-1.504-1.272-1.466-1.62-2.655-1.151-3.964l.195-.506-.803-.39c-.274-.135-.547-.273-.821-.371-.135.529-.274 1.035-.39 1.564-.293 1.192-.645 4.279-.664 5.587 0 .117.195.079.529-.135.469-.273.705-.311 1.935-.273l-.004-.008Zm-7.597-.116c1.368-.079 2.775-.177 3.146-.236l.682-.098.079-2.246c.116-3.203.585-5.097 1.972-8.127.975-2.148 1.407-4.023 1.193-5.43-.079-.603-.116-.645-.938-.997a21.62 21.62 0 0 0-4.668-1.271c-1.541-.214-6.075-.098-7.774.236-.705.116-1.991.39-2.85.604-2.13.487-3.263.431-4.883-.274-1.6-.705-2.617-1.346-3.573-2.246-.761-.705-.84-.743-1.035-.506-.158.176-.237.704-.293 1.837-.06 1.74-.334 2.655-1.095 3.885-.169.253-.313.522-.431.802 0 .06.585.743 1.309 1.486 2.501 2.598 3.731 3.262 5.704 3.123.644-.06 1.094-.037 1.094.038 0 .157-1.27 1.151-1.796 1.425-.255.135-.311.274-.273.566l.31 2.051c.177 1.174.312 1.718.488 1.875.469.39 2.892 1.643 4.414 2.265 1.991.803 3.086 1.095 4.609 1.23 1.875.158 1.912.158 4.609 0v.008ZM76.27 49.14c.038-.06-.097-1.193-.352-2.501-.311-1.778-.488-2.423-.683-2.599-.135-.116-.859-.626-1.582-1.151a24.667 24.667 0 0 1-2.697-2.247l-1.346-1.327-.724.371-.76.409c.063.305.168.6.31.877.214.47.645 1.62.957 2.558.821 2.441 1.466 3.615 3.086 5.741l.604.803 1.151.176c.645.097 1.29.236 1.466.292.274.117.312.06.39-.566.038-.273.098-.566.177-.84l.003.004Zm24.747-24.296c.997-.098 1.173-.236.742-.683-.274-.274-.9-.292-1.406-.06-.334.158-.409.117-.938-.45-.547-.604-.585-.626-1.271-.547-.626.079-.724.06-.802-.195a5.03 5.03 0 0 0-.9-1.133 4.333 4.333 0 0 0-1.62-1.151c-1.212-.469-1.894-.409-3.05.236-3.34 1.815-3.202 1.796-6.427.975-3.007-.761-5.254-1.541-5.977-2.032-.604-.409-1.894-.859-2.97-.998-.803-.116-1.309.06-2.07.683l-.409.334.371.645c.507.9.45.956-.311.292-.821-.683-1.796-1.151-2.422-1.174-.45 0-1.778.585-1.936.84-.06.079.353.177.9.214.567.06 1.347.255 1.875.469 1.37.585 2.07.78 3.32.9 1.368.135 3.847-.019 4.14-.255.157-.135.584-.158 1.484-.079 1.193.079 1.68.195 4.512.956 1.642.45 2.793.409 4.747-.116.9-.255 2.032-.506 2.501-.566.803-.079.957-.038 2.209.528 1.991.9 3.049 1.467 3.634 1.992.585.506.663.506 2.07.39l.004-.015Zm-11.134-3.417 1.192-.626-.037-1.211c-.019-.84-.06-1.661-.098-2.479l-.097-1.248-1.193.918c-.705.548-1.387.957-1.68 1.017-.859.157-5.096 0-5.49-.214a11.464 11.464 0 0 1-1.466-1.29L79.92 15.18l-.019.664c0 .352-.037.956-.116 1.327-.097.705-.097.724.664 1.68.409.529.742.998.742 1.054 0 .371 5.644 2.13 6.915 2.149.409 0 .919-.176 1.778-.627Zm-2.265-4.436c1.406-.273 2.088-1.29 2.617-3.866.548-2.775.822-7.129.566-8.985-.236-1.68-2.11-2.422-5.684-2.306-2.228.079-3.147.292-3.908.937-.469.39-.469.432-.682 2.284-.39 3.555.194 8.614 1.21 10.508.488.918.92 1.248 1.816 1.406 1.016.176 3.183.176 4.061.018l.004.004Z"/></svg>