<svg xmlns="http://www.w3.org/2000/svg" width="97" height="59" fill="none"><g fill="#42446E" clip-path="url(#a)"><path d="M12.558 0v3.83c-1.055 0-1.878.152-2.47.453-.591.29-.846.877-.765 1.759l.54 5.136c.138 1.3-.007 2.351-.436 3.152-.417.801-1.06 1.416-1.93 1.846-.859.418-1.873.714-3.044.888 1.24.186 2.29.487 3.148.905.858.418 1.484 1.022 1.878 1.811.395.79.522 1.846.383 3.17l-.54 5.136c-.08.882.175 1.468.766 1.758.592.302 1.415.453 2.47.453v3.83c-3.2 0-5.45-.487-6.749-1.462-1.287-.963-1.809-2.617-1.565-4.962l.522-4.98c.093-.882-.058-1.573-.452-2.072-.383-.5-.951-.848-1.705-1.045-.754-.209-1.623-.313-2.609-.313v-4.458c.974 0 1.838-.099 2.592-.296.753-.209 1.327-.563 1.722-1.062.394-.5.545-1.19.452-2.072L4.244 6.46c-.255-2.391.267-4.063 1.565-5.015C7.11.482 9.358 0 12.56 0ZM27.633 4.51c2.876 0 5.044 1.114 6.505 3.343 1.473 2.217 2.21 5.31 2.21 9.28 0 3.982-.737 7.099-2.21 9.35-1.46 2.241-3.63 3.361-6.505 3.361-2.899 0-5.079-1.12-6.54-3.36-1.45-2.252-2.174-5.369-2.174-9.35 0-3.97.725-7.064 2.174-9.281 1.461-2.229 3.641-3.343 6.54-3.343Zm0 3.987c-1.23 0-2.128.662-2.696 1.985-.568 1.312-.852 3.529-.852 6.652 0 1.021.017 1.932.052 2.733.035.79.087 1.492.157 2.107l5.878-12.31c-.278-.441-.626-.743-1.043-.906-.406-.174-.905-.26-1.496-.26Zm3.514 8.637c0-1.335-.03-2.461-.087-3.379L25.51 25.23c.255.244.557.412.904.505.36.093.766.14 1.218.14.823 0 1.49-.28 2-.836.522-.558.905-1.475 1.148-2.752.244-1.288.366-3.006.366-5.153ZM48.5 4.51c2.876 0 5.044 1.114 6.505 3.343 1.473 2.217 2.209 5.31 2.209 9.28 0 3.982-.736 7.099-2.209 9.35-1.46 2.241-3.63 3.361-6.505 3.361-2.899 0-5.079-1.12-6.54-3.36-1.45-2.252-2.174-5.369-2.174-9.35 0-3.97.725-7.064 2.174-9.281 1.461-2.229 3.641-3.343 6.54-3.343Zm0 3.987c-1.23 0-2.128.662-2.696 1.985-.568 1.312-.852 3.529-.852 6.652 0 1.021.017 1.932.052 2.733.035.79.087 1.492.157 2.107l5.878-12.31c-.278-.441-.626-.743-1.043-.906-.406-.174-.905-.26-1.496-.26Zm3.514 8.637c0-1.335-.03-2.461-.088-3.379L46.378 25.23c.255.244.557.412.904.505.36.093.766.14 1.218.14.823 0 1.49-.28 2-.836.522-.558.905-1.475 1.148-2.752.244-1.288.365-3.006.365-5.153ZM68.115 29.81l-5.218-1.62 8.992-18.927H61.296V5.12h16.159v3.726l-9.34 20.964ZM84.442 0c3.2 0 5.444.482 6.731 1.445 1.299.964 1.827 2.624 1.583 4.98l-.522 4.98c-.093.882.058 1.573.453 2.072.394.5.962.853 1.704 1.062.754.197 1.623.296 2.609.296v4.458c-.974 0-1.838.104-2.592.313-.753.197-1.327.546-1.722 1.045-.394.499-.545 1.19-.452 2.072l.522 4.945c.267 2.38-.255 4.051-1.565 5.014-1.3.964-3.549 1.446-6.749 1.446v-3.831c1.067 0 1.896-.151 2.487-.453.592-.29.84-.876.748-1.758l-.54-5.137c-.138-1.312 0-2.362.418-3.151.43-.801 1.079-1.41 1.948-1.829.87-.43 1.89-.731 3.062-.905-1.241-.186-2.296-.488-3.166-.906-.858-.418-1.484-1.021-1.878-1.81-.395-.801-.522-1.858-.383-3.17l.54-5.136c.092-.882-.163-1.468-.766-1.759-.592-.301-1.415-.452-2.47-.452V0ZM12.274 42.162c.968 0 1.747.24 2.338.721.592.48 1.023 1.16 1.294 2.037.278.878.418 1.919.418 3.124 0 1.142-.167 2.163-.501 3.06-.334.892-.818 1.596-1.45 2.111-.634.509-1.403.763-2.307.763-1.079 0-1.955-.387-2.63-1.16v5.088l-3.298.345V42.528H9.06l.146 1.243c.453-.578.947-.989 1.482-1.233a3.722 3.722 0 0 1 1.586-.376Zm-1.022 2.434c-.383 0-.72.115-1.013.345-.292.23-.56.543-.803.94v4.68c.23.342.47.593.72.753.257.16.56.24.908.24.584 0 1.04-.265 1.367-.794.327-.536.49-1.427.49-2.674 0-.92-.066-1.63-.198-2.131-.132-.509-.323-.86-.574-1.056a1.385 1.385 0 0 0-.897-.303ZM27.988 50.426c0 .418.056.72.167.909.118.188.306.33.564.428l-.679 2.173c-.654-.063-1.207-.205-1.66-.428a2.515 2.515 0 0 1-1.053-1.034 3.858 3.858 0 0 1-1.628 1.138 5.81 5.81 0 0 1-2.025.366c-1.14 0-2.052-.324-2.734-.972-.675-.654-1.012-1.494-1.012-2.517 0-1.205.47-2.135 1.409-2.79.946-.654 2.275-.982 3.986-.982h1.492V46.3c0-1.135-.73-1.703-2.191-1.703-.355 0-.81.053-1.367.157a11.29 11.29 0 0 0-1.67.428l-.762-2.194a12.592 12.592 0 0 1 2.234-.616c.779-.14 1.475-.209 2.087-.209 1.649 0 2.866.338 3.652 1.013.794.67 1.19 1.637 1.19 2.905v4.346Zm-5.176 1.19c.355 0 .727-.104 1.116-.313.39-.215.686-.518.887-.908v-1.797h-.813c-.919 0-1.594.142-2.025.428-.431.278-.647.69-.647 1.233 0 .425.129.759.386 1.003.264.236.63.355 1.096.355ZM41.636 42.528 37.94 53.623H34.06l-3.736-11.095h3.559l2.16 8.566 2.254-8.566h3.34ZM53.029 50.426c0 .418.055.72.167.909.118.188.306.33.563.428l-.678 2.173c-.654-.063-1.207-.205-1.66-.428a2.514 2.514 0 0 1-1.054-1.034 3.858 3.858 0 0 1-1.628 1.138 5.81 5.81 0 0 1-2.024.366c-1.141 0-2.053-.324-2.735-.972-.674-.654-1.012-1.494-1.012-2.517 0-1.205.47-2.135 1.409-2.79.946-.654 2.275-.982 3.987-.982h1.492V46.3c0-1.135-.73-1.703-2.192-1.703-.354 0-.81.053-1.367.157a11.29 11.29 0 0 0-1.67.428l-.761-2.194a12.586 12.586 0 0 1 2.233-.616 12 12 0 0 1 2.087-.209c1.65 0 2.867.338 3.653 1.013.793.67 1.19 1.637 1.19 2.905v4.346Zm-5.177 1.19c.355 0 .727-.104 1.117-.313.39-.215.685-.518.887-.908v-1.797h-.814c-.918 0-1.593.142-2.025.428-.43.278-.647.69-.647 1.233 0 .425.13.759.387 1.003.264.236.63.355 1.095.355ZM56.219 53.623V42.528h2.88l.23 1.285c.494-.557 1.016-.972 1.565-1.243.55-.272 1.176-.408 1.879-.408.946 0 1.69.29 2.233.867.543.578.814 1.393.814 2.445v8.149h-3.298v-7.198c0-.683-.076-1.156-.23-1.421-.145-.272-.424-.408-.834-.408-.348 0-.682.112-1.002.335-.313.223-.626.532-.94.93v7.762H56.22ZM76.931 42.162c.787 0 1.368.258 1.743.773.383.509.574 1.334.574 2.476v8.212H76.42v-7.836c0-.39-.038-.665-.115-.825-.07-.16-.216-.24-.438-.24-.174 0-.355.052-.543.156-.18.098-.382.286-.605.565v8.18h-2.317v-7.836c0-.39-.038-.665-.115-.825-.07-.16-.215-.24-.438-.24-.174 0-.355.052-.543.156-.18.098-.382.286-.605.565v8.18h-2.87V42.528h2.421l.22 1.076c.347-.474.699-.832 1.053-1.076.355-.244.776-.366 1.263-.366.418 0 .773.108 1.065.324.299.209.511.54.636.992.334-.39.703-.706 1.106-.95a2.534 2.534 0 0 1 1.336-.366ZM91.1 40.752l.773 2.423c-.39.154-.846.265-1.367.335-.522.07-1.13.104-1.827.104.696.3 1.225.672 1.587 1.118.368.439.553 1.017.553 1.734 0 .718-.192 1.358-.574 1.923-.383.557-.925.996-1.628 1.316-.703.32-1.534.48-2.495.48a6.22 6.22 0 0 1-1.283-.125.637.637 0 0 0-.271.272.772.772 0 0 0-.094.365c0 .175.07.331.208.47.147.14.484.21 1.013.21h1.816c.862 0 1.607.139 2.233.417.633.279 1.123.659 1.471 1.14.348.48.522 1.03.522 1.65 0 1.135-.497 2.03-1.492 2.685-.995.654-2.474.982-4.436.982-1.419 0-2.518-.146-3.297-.439-.773-.285-1.312-.696-1.618-1.233-.3-.53-.449-1.16-.449-1.89h2.922c0 .32.063.58.188.783.132.209.38.362.741.46.369.097.901.146 1.597.146.703 0 1.238-.056 1.607-.167.369-.112.62-.265.751-.46.14-.188.21-.4.21-.637a.961.961 0 0 0-.387-.794c-.257-.202-.664-.303-1.221-.303h-1.764c-1.196 0-2.066-.22-2.609-.658-.542-.446-.814-.965-.814-1.557 0-.411.108-.801.324-1.17.222-.37.532-.68.929-.93-.71-.376-1.218-.818-1.524-1.327-.306-.515-.46-1.132-.46-1.849 0-.836.213-1.553.637-2.152.425-.606 1.01-1.073 1.754-1.4.751-.327 1.607-.491 2.567-.491.828.014 1.548-.042 2.16-.167a8.037 8.037 0 0 0 1.65-.533c.486-.23.952-.474 1.397-.731Zm-5.124 3.573c-.521 0-.935.167-1.242.501-.306.328-.459.78-.459 1.358 0 .613.157 1.083.47 1.41.313.328.724.492 1.231.492 1.127 0 1.691-.648 1.691-1.944 0-1.211-.564-1.817-1.69-1.817Z"/></g><defs><clipPath id="a"><path fill="#fff" d="M0 0h97v59H0z"/></clipPath></defs></svg>