<svg xmlns="http://www.w3.org/2000/svg" width="131" height="131" fill="none"><path fill="#44A8B3" d="M36.844 56.084C40.664 40.801 50.217 33.16 65.5 33.16c22.925 0 25.79 17.194 37.253 20.06 7.642 1.91 14.328-.956 20.059-8.597-3.82 15.283-13.372 22.925-28.656 22.925-22.925 0-25.79-17.194-37.253-20.06-7.642-1.91-14.328.956-20.06 8.597ZM8.187 90.472c3.821-15.283 13.373-22.925 28.657-22.925 22.925 0 25.79 17.194 37.253 20.06 7.642 1.91 14.328-.956 20.06-8.598-3.822 15.284-13.374 22.925-28.657 22.925-22.925 0-25.79-17.193-37.253-20.059-7.642-1.91-14.328.955-20.06 8.597Z"/></svg>