<svg xmlns="http://www.w3.org/2000/svg" width="31" height="31" fill="none"><path fill="#666" d="M15.875.875c-8.283 0-15 6.717-15 15 0 8.284 6.717 15 15 15 8.284 0 15-6.716 15-15 0-8.283-6.716-15-15-15Zm7.209 11.307c.01.157.01.321.01.482 0 4.915-3.744 10.577-10.584 10.577-2.11 0-4.065-.613-5.712-1.667.301.033.59.046.897.046a7.46 7.46 0 0 0 4.617-1.587 3.72 3.72 0 0 1-3.475-2.578c.573.084 1.088.084 1.678-.067a3.717 3.717 0 0 1-2.977-3.65v-.046a3.722 3.722 0 0 0 1.677.472 3.722 3.722 0 0 1-1.151-4.969 10.555 10.555 0 0 0 7.667 3.888c-.526-2.528 1.363-4.574 3.633-4.574 1.071 0 2.036.449 2.715 1.172a7.346 7.346 0 0 0 2.36-.894 3.701 3.701 0 0 1-1.633 2.046 7.357 7.357 0 0 0 2.143-.58 7.793 7.793 0 0 1-1.865 1.929Z"/></svg>